<svg xmlns="http://www.w3.org/2000/svg" width="1200" height="700" viewBox="0 0 1200 700" role="img" aria-label="Medical">
<defs>
  <linearGradient id="g" x1="0" y1="0" x2="1" y2="1">
    <stop offset="0%" stop-color="#fff1f2"/>
    <stop offset="100%" stop-color="#fecdd3"/>
  </linearGradient>
  <linearGradient id="p" x1="0" y1="0" x2="1" y2="1">
    <stop offset="0%" stop-color="#ffffff" stop-opacity="0.95"/>
    <stop offset="100%" stop-color="#ffffff" stop-opacity="0.7"/>
  </linearGradient>
</defs>
<rect width="1200" height="700" fill="url(#g)" rx="42"/>
<circle cx="1030" cy="110" r="120" fill="#ffffff" opacity="0.12"/>
<circle cx="170" cy="590" r="150" fill="#ffffff" opacity="0.10"/>
<rect x="80" y="90" width="1040" height="520" rx="38" fill="url(#p)"/>
<rect x="150" y="160" width="360" height="260" rx="30" fill="#ffffff"/>
<rect x="560" y="160" width="500" height="58" rx="18" fill="#ffffff" opacity="0.85"/>
<rect x="560" y="252" width="420" height="34" rx="16" fill="#ffffff" opacity="0.72"/>
<rect x="560" y="308" width="350" height="34" rx="16" fill="#ffffff" opacity="0.72"/>
<rect x="560" y="364" width="450" height="34" rx="16" fill="#ffffff" opacity="0.72"/>
<rect x="560" y="444" width="180" height="54" rx="20" fill="#be123c"/>
<rect x="770" y="444" width="160" height="54" rx="20" fill="#ffffff" opacity="0.78"/>
<circle cx="330" cy="290" r="95" fill="#be123c" opacity="0.18"/>
<text x="330" y="323" font-size="110" text-anchor="middle" font-family="Arial, Helvetica, sans-serif" fill="#be123c" font-weight="700">M</text>
<text x="155" y="470" font-size="44" font-family="Arial, Helvetica, sans-serif" fill="#0f2347" font-weight="700">Medical</text>
<text x="155" y="520" font-size="25" font-family="Arial, Helvetica, sans-serif" fill="#334155">Sanad Education - Premium Service Card</text>
</svg>
